<svg xmlns="http://www.w3.org/2000/svg" xmlns:xlink="http://www.w3.org/1999/xlink" width="1002.343" height="603.771" viewBox="0 0 1002.343 603.771">
    <defs>
        <linearGradient id="linear-gradient" x1="0.5" y1="0.103" x2="0.5" y2="1.202" gradientUnits="objectBoundingBox">
            <stop offset="0" stop-color="#9ec8ff" />
            <stop offset="1" stop-color="#e7f3fe" />
        </linearGradient>
        <linearGradient id="linear-gradient-2" x1="0.5" x2="0.5" y2="1" gradientUnits="objectBoundingBox">
            <stop offset="0" stop-color="#fe5b90" />
            <stop offset="1" stop-color="#ff7ba3" />
        </linearGradient>
        <clipPath id="clip-path">
            <path id="SVGID" d="M410.87,868.038a40.069,40.069,0,1,0,40.068,40.069A40.069,40.069,0,0,0,410.87,868.038Zm0,61.295A21.226,21.226,0,1,1,432.1,908.107,21.226,21.226,0,0,1,410.87,929.333Z" transform="translate(-370.801 -868.038)" fill="#fe6394" />
        </clipPath>
    </defs>
    <g id="main-image" data-name="main-image" transform="translate(-250.934 -178.362)">
        <path id="Path_1" data-name="Path 1" d="M1795.021,383.552c40.816-42.435-159.283-190.107-324.524-203.57-152.132-12.4-353.123,47.612-149.064,136.327C1515.867,400.839,1773.693,405.725,1795.021,383.552Z" transform="translate(-706.762 0)" fill="#202040" />
        <path id="Path_2" data-name="Path 2" d="M289.6,671.239c95.3-120.564,295.424,6.779,466.661,37.713s449.763-18.215,449.066,117.459c-.743,144.65-62.511,226.031-401.3,264.9s-493.9-80.914-538.2-208.434C231.349,783.607,264.132,703.462,289.6,671.239Z" transform="translate(0 -317.462)" fill="#202040" />
        <g id="Group_1" data-name="Group 1" transform="translate(866.635 507.772)">
            <path id="Path_3" data-name="Path 3" d="M2512.953,1347.706c-13.986,28.393-31.523,105.978-36.306,110.229s-32.416,20.725-37.2,28.7-2.657,5.314-.531,5.845,122.224,1.063,122.224,1.063-13.817-82.368-15.411-82.9S2512.953,1347.706,2512.953,1347.706Z" transform="translate(-2436.559 -1347.706)" fill="#a2dff2" />
            <path id="Path_4" data-name="Path 4" d="M2637.15,1493.155c22.057.154,45.332.275,58.146.338l-17.543-104.915c-9.356-18.141-20.716-40.872-20.716-40.872-1.763,3.579-3.583,7.941-5.426,12.839-1.82,78.8,9.53,100.886,1,114.927C2645.963,1486.428,2639.891,1491.33,2637.15,1493.155Z" transform="translate(-2580.642 -1347.706)" fill="#96cfe0" />
        </g>
        <g id="Group_2" data-name="Group 2" transform="translate(799.992 397.506)">
            <path id="Path_5" data-name="Path 5" d="M2780.944,1226.059c19.948,18.413,64.348,35.874,64.348,35.874s6.746,62.329,2.143,97.62-2.046,42.452-2.046,42.452l-95.881.816s-7.96-17.868-30.453-70.888c-14.322-33.757-11.764-71.606-11.764-71.606l55.751-25.062Z" transform="translate(-2564.256 -1150.061)" fill="#a2dff2" />
            <path id="Path_6" data-name="Path 6" d="M2844.744,1497.994H2936.3s-2.557-7.161,2.046-42.452c3.79-29.061-.114-76.45-1.612-92.281l-8.326-3.568c-20.9,6.023-32.949,37.2-36.492,67.669-2.37,20.387-36.145,40.456-58.239,51.505C2840.933,1492.7,2844.744,1497.994,2844.744,1497.994Z" transform="translate(-2655.162 -1246.05)" fill="#96cfe0" />
            <path id="Path_7" data-name="Path 7" d="M2914.477,1280.568s.859,26.322,5.347,26.04,30.583-33.374,30.583-33.374l-4.436-2.121Z" transform="translate(-2713.203 -1182.423)" fill="#96cfe0" />
            <path id="Path_8" data-name="Path 8" d="M2852.006,1295.421s-5.672,24.214-8.486,23.65-6.616-25.18-6.616-25.18Z" transform="translate(-2657.481 -1198.785)" fill="#96cfe0" />
            <path id="Path_9" data-name="Path 9" d="M2858.88,1288.613l7.8.845,3,9.3s-6.864,8.033-7,11.271,1.511,15.351,1.6,26.337-3.946,54.719-2.114,81.51l1.832,26.791-15.686.611s-.845-29.472,0-61.023,9.825-74.227,9.825-74.227l-3.544-10.848Z" transform="translate(-2665.409 -1194.994)" fill="#f37168" />
            <path id="Path_10" data-name="Path 10" d="M2782.069,998.959c-11.036,24.58,2.209,47.35,1.808,46.39s16.7-41.5,16.7-41.5Z" transform="translate(-2614.933 -986.937)" fill="#2e5b9a" />
            <path id="Path_11" data-name="Path 11" d="M2881.783,1063.48l14,51.159a4.632,4.632,0,0,1-.885,4.144c-3.283,4.044-7.958,12.363-17.388,15.031a23.365,23.365,0,0,1-5.92.664,4,4,0,0,1-3.943-3.234l-9.378-48.523Z" transform="translate(-2672.826 -1033.281)" fill="#f09959" />
            <path id="Path_12" data-name="Path 12" d="M2879.111,1078.659l-5.117,2.1-15.729,12.869,6.036,30.756,2.407,12.263C2881.026,1127.718,2886.278,1113.155,2879.111,1078.659Z" transform="translate(-2672.826 -1044.185)" fill="#e38540" />
            <path id="Path_13" data-name="Path 13" d="M2810.472,1048.485c.012,17.112-10.3,30.593-23.041,30.11s-20.55-10.117-23.081-31.859c-1.986-17.057,2.939-36.906,15.676-36.423S2810.461,1031.373,2810.472,1048.485Z" transform="translate(-2605.062 -995.086)" fill="#f09959" />
            <path id="Path_14" data-name="Path 14" d="M2954.882,1352.312c18.523,4.183,21.966,41.807,27.989,81.487.693,4.567,4.251,43.223,4.251,43.223a11.832,11.832,0,0,1-6.731,10.629c-6.054,3.027-8.5,5.314-43.578,5.669-33.686.34-77.117-1.063-77.117-1.063s-.385-12.534,3.07-18.659c5.2-9.211,58.458-22.438,63.419-23.147.708-9.92-4.892-45.813,2.834-70.149,5.314-16.74,11.026-25.509,18.184-27.8A14.374,14.374,0,0,1,2954.882,1352.312Z" transform="translate(-2673.845 -1240.44)" fill="#a2dff2" />
            <path id="Path_15" data-name="Path 15" d="M2927.34,1515.568c16.608.249,39.4.488,58.07.3,35.075-.354,37.524-2.642,43.578-5.669,7.086-3.543,7.44-9.566,7.44-9.566s-3.581-41.133-4.251-45.7c-3.9-26.572-8.108-56.978-17.908-71.655a200.369,200.369,0,0,1,10.86,59.516c.083,4.927-.371,11.676-1.809,16.39-1.594,5.226-5.669,8.5-12.045,6.732-12.755-3.543-28.7,3.9-28.7,3.9s12.045-4.252,23.383-.355,34.72,29.76,9.211,39.326C3007.364,1511.709,2960.61,1514.1,2927.34,1515.568Z" transform="translate(-2722.442 -1262.989)" fill="#96cfe0" />
            <path id="Path_16" data-name="Path 16" d="M2868.9,1767.66s4.723-8.031,14.408-8.031,8.975,15.825,7.558,21.021-7.085,5.432-7.085,5.432l-19.505-.494Z" transform="translate(-2677.141 -1533.322)" fill="#96cfe0" />
            <path id="Path_17" data-name="Path 17" d="M2199.99,1833.6h162.734a8.156,8.156,0,0,0-8.156-8.156H2199.99Z" transform="translate(-2199.99 -1580.598)" fill="#75a1de" />
            <path id="Path_18" data-name="Path 18" d="M2732.706,1757.56c-19.616-9.023-25.16-6.729-29.621-8.454-11.015-4.259-14.08-1.676-23.083,17.705-1.794,3.862,2.462,4.477,6.7,4.838s10.117-7.433,11.844-8.234,6.239-.89,6.239-.89-1.412-.121-3.891,3.935-5.209,5.482-1.914,5.763,4.227-5.091,10.246-3.392,4.786,7.427,20.131,6.932c14.555-.47,25.431.986,25.966-8.213.508-8.728,1.844-13-6.285-15.233C2742.783,1750.6,2732.706,1757.56,2732.706,1757.56Z" transform="translate(-2544.479 -1524.5)" fill="#f09959" />
            <path id="Path_19" data-name="Path 19" d="M2868.966,1771.137c13.662-.375,8.252,16.143,6.72,17.434s7.492,1.139,7.492,1.139a16.4,16.4,0,0,0,1.913-14.47c-2.868-8.067-9.9-9.023-9.9-9.023l-6.282,2.782Z" transform="translate(-2680.473 -1538.054)" fill="#a86b48" />
            <path id="Path_20" data-name="Path 20" d="M2878.317,1763.128c.109,2.1-3.231,3.982-7.459,4.2s-7.745-1.306-7.855-3.407,3.231-3.982,7.46-4.2S2878.208,1761.027,2878.317,1763.128Z" transform="translate(-2676.227 -1533.374)" fill="#2e5b9a" />
            <path id="Path_21" data-name="Path 21" d="M2878.182,1760.91c.1,1.877-2.886,3.558-6.664,3.754s-6.92-1.167-7.018-3.044,2.886-3.558,6.665-3.754S2878.085,1759.033,2878.182,1760.91Z" transform="translate(-2677.302 -1532.043)" fill="#3e6bab" />
            <path id="Path_22" data-name="Path 22" d="M2879.257,1761.17c.07,1.352-2.078,2.561-4.8,2.7s-4.982-.84-5.052-2.191,2.078-2.561,4.8-2.7S2879.186,1759.819,2879.257,1761.17Z" transform="translate(-2680.828 -1532.846)" fill="#f0ceb4" />
            <path id="Path_23" data-name="Path 23" d="M2460.14,1779.461c10.085-5.6,22.413-3.736,26.9,1.868s5.23,9.339-4.856,9.339-30.258.747-33.62.374S2460.14,1779.461,2460.14,1779.461Z" transform="translate(-2378.182 -1545.137)" fill="#f09959" />
            <path id="Path_24" data-name="Path 24" d="M2537.455,1779.62c10.833-2.615,18.235,3.689,27.269,9.712,7.845,5.23,9.421,10.314.747,5.977-12.7-6.35-20.172-7.1-20.172-7.1Z" transform="translate(-2442.389 -1547.245)" fill="#f09959" />
            <path id="Path_25" data-name="Path 25" d="M2421.935,1794.859c-5.47,0-10.246-1.744-14.108-1.423s-16.091,12.873-14.16,13.838a4.448,4.448,0,0,0,.45.192,6.589,6.589,0,0,0,7.817-2.742c1.731-2.777,4.546-6.009,7.823-4.852a34.8,34.8,0,0,0,11.212,1.744Z" transform="translate(-2338.96 -1557.577)" fill="#f09959" />
            <path id="Path_26" data-name="Path 26" d="M2492.953,1782.485c-5.6-2.241,3.362-20.919,6.351-20.919s14.195,8.966,14.195,8.966-2.636,1.487-11.58-1.495c-2.241-.747-4.109,11.954-6.724,13.448S2492.953,1782.485,2492.953,1782.485Z" transform="translate(-2409.128 -1534.713)" fill="#f7a96f" />
            <path id="Path_27" data-name="Path 27" d="M2847.06,1248.952l2.626,14-7.674,16.611-8.338-17.607Z" transform="translate(-2655.162 -1166.505)" fill="#a2dff2" />
            <path id="Path_28" data-name="Path 28" d="M2735.744,1017.606c3.224,20.32,10.747,22.467,16.074,24.323s25.254-6.517,27.377-12.083c5.433-14.237-3.334-24.958-1.557-25.1s4.292,4.546,10.035,10.171c.534.524,4.228,3.974,4.136,2.616-1.235-18.5,7.157-25.867,1.527-43.771-4.15-13.2-12.525-10.543-12.525-10.543s-7.617-10.278-24.594-5.815c-11.375,2.99-20.826,9.383-32.15,14.64s19.609,27.41,33.212,14.716,9.994,10.4,12.738,11.631,1.212.007,4.378,10.9-9.589,20.74-13.453,22.436c-12.353,5.423-14.907,3.692-18.633-.649C2739.077,1027.31,2735.744,1017.606,2735.744,1017.606Z" transform="translate(-2574.677 -956.281)" fill="#2e5b9a" />
            <path id="Path_29" data-name="Path 29" d="M2927.9,1089.551c-.539,5.371-3.551,9.333-6.728,8.849s-4.03-4.609-4.773-10.6c-.67-5.4,3.552-9.332,6.728-8.849S2928.439,1084.179,2927.9,1089.551Z" transform="translate(-2714.531 -1044.364)" fill="#f09959" />
            <path id="Path_30" data-name="Path 30" d="M2932.7,1230.1l13.916,12.963s-26.775,25.212-29.092,24.931-6.25-21.41-6.25-21.41Z" transform="translate(-2710.902 -1152.962)" fill="#a2dff2" />
            <path id="Path_31" data-name="Path 31" d="M2880.317,1287.492c-2.569,1.206-1.743,4.87-2.833,6.144s-1.739,1.617-2.615-.158-.736-5.784-1.417-5.986-5.845,15.949-5.845,15.949,3.8-10.329,4.661-9.2.177,2.176,3.318,2.364a23.178,23.178,0,0,0,7.139-1.137Z" transform="translate(-2679.536 -1194.187)" fill="#a2dff2" />
        </g>
        <g id="Group_3" data-name="Group 3" transform="translate(754.098 565.413)">
            <path id="Path_32" data-name="Path 32" d="M2104.323,1637.418h86.921l-36.911-81.2a6.638,6.638,0,0,0-6.043-3.891h-78.622a2.592,2.592,0,0,0-2.359,3.664Z" transform="translate(-2058.622 -1552.322)" fill="#a8ceff" />
            <path id="Path_33" data-name="Path 33" d="M2039.668,1552.322h80.22a6.638,6.638,0,0,1,6.043,3.891l36.911,81.2h-88.519l-37.015-81.432A2.592,2.592,0,0,1,2039.668,1552.322Z" transform="translate(-2037.073 -1552.322)" fill="#75a1de" />
            <path id="Path_34" data-name="Path 34" d="M2188.918,1683.459c3.043,6.3,7.979,10.224,11.027,8.754s3.051-7.774.009-14.08-7.98-10.224-11.027-8.753S2185.875,1677.154,2188.918,1683.459Z" transform="translate(-2144.506 -1636.182)" fill="#6695d6" />
        </g>
        <g id="Group_6" data-name="Group 6" transform="translate(404.559 404.757)">
            <g id="Group_4" data-name="Group 4" transform="translate(75.467 4.465)">
                <path id="Path_35" data-name="Path 35" d="M1072.1,1094.1c-1.352,0-2.682-.068-3.986-.134-1.079-.055-2.2-.111-3.271-.126a.686.686,0,0,1,.009-1.373c1.111.015,2.239.073,3.331.128,8.161.413,16.6.841,24.825-14.97,3.569-6.864,7.454-20.21,6.657-35.231-.653-12.3-4.823-29.8-20.979-43.311a.686.686,0,1,1,.88-1.053c16.534,13.824,20.8,31.716,21.469,44.292.812,15.3-3.161,28.92-6.81,35.938C1086.97,1092.214,1079.246,1094.1,1072.1,1094.1Z" transform="translate(-1064.167 -997.871)" fill="#303c60" />
            </g>
            <g id="Group_5" data-name="Group 5" transform="translate(79.224 13.237)">
                <path id="Path_36" data-name="Path 36" d="M1079.116,1113.227c-.319,0-.638-.008-.959-.024a.686.686,0,1,1,.067-1.371c.3.015.592.022.886.022,8.516,0,16.382-6.031,21.7-16.688,8.735-17.522,9.583-46.268-6.053-65.03a.686.686,0,1,1,1.054-.878c16.008,19.209,15.156,48.61,6.227,66.521C1096.479,1106.921,1088.168,1113.226,1079.116,1113.227Z" transform="translate(-1077.504 -1029.011)" fill="#303c60" />
            </g>
            <path id="Path_37" data-name="Path 37" d="M914.12,991.932c24.645-19.129,47.79-8.989,56.082,16.9,7.745,24.182-2.181,76.148-38.945,67.092-38.034-9.368-41.2-21.012-40.914-37.935A60.055,60.055,0,0,1,914.12,991.932Z" transform="translate(-863.831 -982.021)" fill="#303c60" />
            <path id="Path_38" data-name="Path 38" d="M833.755,1289.45l-35.228,13.145s9.86,71.553,10.7,98.878-12.958,51.031-12.958,51.031h92.117s12.677-74.412,10.141-100.611-20-53.342-20.846-54-21.973-5.443-21.973-5.443Z" transform="translate(-796.274 -1202.846)" fill="#a2dff2" />
            <path id="Path_39" data-name="Path 39" d="M1103.3,1602.113s3.547,33.241,5.013,34.932,55.553,28.165,55.553,28.165l-78.6,5.358Z" transform="translate(-1003.861 -1427.43)" fill="#d54a41" />
            <path id="Path_40" data-name="Path 40" d="M1085.274,1319.435c8.733.191,11.1,14.469,13.158,25.078S1085.274,1319.435,1085.274,1319.435Z" transform="translate(-1003.861 -1224.384)" fill="#d54a41" />
            <path id="Path_41" data-name="Path 41" d="M868.5,1354.282c-4.789-17.184-30.52-65.036-30.52-65.036l-33.708,13.2s7.728,56.078,10.086,87.9l12.8,62.007H868.5S873.292,1371.466,868.5,1354.282Z" transform="translate(-802.02 -1202.699)" fill="#f37168" />
            <path id="Path_42" data-name="Path 42" d="M863.4,1738.835l38-8.722-3.1,32.4Z" transform="translate(-844.488 -1519.372)" fill="#d54a41" />
            <path id="Path_43" data-name="Path 43" d="M834.181,1469.88c-6.2-8.391-12.259-17.623-6.356-36.9s6.479-26.2,4.411-43.664-11.454-45.355-29.765-46.2c0,0-.6,6.107-1.58,15.857,2.974,23.03,7.763,62.371,8.34,81.05.845,27.325-12.958,51.031-12.958,51.031l74.934,1.648S840.378,1478.271,834.181,1469.88Z" transform="translate(-796.274 -1241.392)" fill="#d54a41" />
            <path id="Path_44" data-name="Path 44" d="M1067.793,1363.631c-2.535-26.2-20-53.343-20.846-54-.522-.4-8.79-2.388-15.031-3.844,1.836,4.329,21.189,50.452,20.384,69.449-.845,19.942.024,89,.024,89h5.328S1070.329,1389.829,1067.793,1363.631Z" transform="translate(-965.535 -1214.583)" fill="#f37168" />
        </g>
        <rect id="Rectangle_2" data-name="Rectangle 2" width="896.151" height="8.897" rx="4.449" transform="translate(286.641 649.967)" fill="#37376b" />
        <g id="message-screen" data-name="message-screen" transform="translate(750.823 218.88)">
            <path id="Rectangle_3" data-name="Rectangle 3" d="M15.912,0h73.33a15.913,15.913,0,0,1,15.913,15.913V27.42A15.913,15.913,0,0,1,89.243,43.332H15.913A15.913,15.913,0,0,1,0,27.42V15.912A15.912,15.912,0,0,1,15.912,0Z" transform="translate(0 0)" fill="#9ec8ff" />
            <path id="Path_46" data-name="Path 46" d="M2070.536,443.521v23.907l27.55-27.55S2071.1,443.521,2070.536,443.521Z" transform="translate(-2057.835 -406.726)" fill="#9ec8ff" />
            <rect id="Rectangle_4" data-name="Rectangle 4" width="94.277" height="34.74" rx="13.491" transform="translate(5.439 4.296)" fill="#fff" />
            <path id="message-screen__messgae-one" data-name="message-screen__messgae-one" d="M2113.663,358.416h-42.586a1.868,1.868,0,0,1,0-3.735h42.586a1.868,1.868,0,0,1,0,3.735Z" transform="translate(-2056.883 -345.529)" fill="#9ec8ff" />
            <path id="message-screen__messgae-two" data-name="message-screen__messgae-two" d="M1.049,0H80.012a1.049,1.049,0,0,1,1.049,1.049v0A1.049,1.049,0,0,1,80.012,2.1H1.049A1.049,1.049,0,0,1,0,1.049v0A1.049,1.049,0,0,1,1.049,0Z" transform="translate(12.327 17.931)" fill="#9ec8ff" />
            <path id="message-screen__messgae-three" data-name="message-screen__messgae-three" d="M1.049,0H80.012a1.049,1.049,0,0,1,1.049,1.049v0A1.049,1.049,0,0,1,80.012,2.1H1.049A1.049,1.049,0,0,1,0,1.049v0A1.049,1.049,0,0,1,1.049,0Z" transform="translate(12.327 21.996)" fill="#9ec8ff" />
            <g id="Group_7" data-name="Group 7" transform="translate(72.449 33.433)">
                <rect id="Rectangle_7" data-name="Rectangle 7" width="4.566" height="4.109" rx="2.055" fill="#9ec8ff" />
                <rect id="Rectangle_8" data-name="Rectangle 8" width="4.566" height="4.109" rx="2.055" transform="translate(8.301)" fill="#9ec8ff" />
                <rect id="Rectangle_9" data-name="Rectangle 9" width="4.566" height="4.109" rx="2.055" transform="translate(16.602)" fill="#9ec8ff" />
            </g>
        </g>
        <g id="Group_9" data-name="Group 9" transform="translate(467.212 565.413)">
            <path id="Path_48" data-name="Path 48" d="M1181.414,1827.769H1018.68a10.443,10.443,0,0,1,10.444-10.443h152.291Z" transform="translate(-1018.68 -1742.673)" fill="#a8ceff" />
            <path id="Path_49" data-name="Path 49" d="M1375.41,1637.418h-86.921l36.912-81.2a6.637,6.637,0,0,1,6.043-3.891h78.622a2.591,2.591,0,0,1,2.359,3.664Z" transform="translate(-1212.483 -1552.322)" fill="#a8ceff" />
            <path id="Path_50" data-name="Path 50" d="M1427.539,1552.322H1355.77a6.638,6.638,0,0,0-6.042,3.891l-36.912,81.2h80.068l37.015-81.432A2.592,2.592,0,0,0,1427.539,1552.322Z" transform="translate(-1229.956 -1552.322)" fill="#75a1de" />
            <path id="Path_51" data-name="Path 51" d="M1539.987,1676.125c-3.043,6.3-7.979,10.224-11.027,8.754s-3.052-7.774-.009-14.079,7.979-10.224,11.026-8.754S1543.03,1669.821,1539.987,1676.125Z" transform="translate(-1383.568 -1630.914)" fill="#6695d6" />
        </g>
        <g id="Group_10" data-name="Group 10" transform="translate(373.975 401.976)">
            <path id="Path_52" data-name="Path 52" d="M941,1109.375s-7.384,37.7-15.546,44.307,18.784,38.466,28.112,30.3.649-26.028.649-26.028-5.052-3.109,3.5-22.931-14.467-34.591-14.467-34.591Z" transform="translate(-857.387 -1064.297)" fill="#f09959" />
            <path id="Path_53" data-name="Path 53" d="M979.773,1100.436l-2.245,8.939s-1.028,5.245-2.739,12.165c3.191,14.887,9.155,24.569,14.49,30.723.156-3.432,1.336-8.831,4.961-17.236C1002.791,1115.205,979.773,1100.436,979.773,1100.436Z" transform="translate(-893.916 -1064.297)" fill="#e38540" />
            <path id="Path_54" data-name="Path 54" d="M1036.345,1081.313c-4.962,13.686-17.09,24.672-24.79,22.136-12.58-4.142-21.736-13.974-19.574-35.71,2.547-25.6,22.245-28.534,33.814-25.263S1041.837,1066.168,1036.345,1081.313Z" transform="translate(-906.038 -1021.884)" fill="#f09959" />
            <path id="Path_55" data-name="Path 55" d="M893.593,1289.246l-11.9,4.661,18.756,24.036-5.352,9.578s19.316,14.5,25.186,42.6a251.34,251.34,0,0,1,5.232,52.041s1.442-56.988-1.4-67.88C918.6,1333.155,893.593,1289.246,893.593,1289.246Z" transform="translate(-827.047 -1199.919)" fill="#d54a41" />
            <path id="Path_56" data-name="Path 56" d="M1031.916,1305.79s14.848,38.12,17.2,48.847,2.833,63.15,2.833,63.15,6.827-45.706,4.855-59.228-4.789-25.741-4.789-25.741l-9.015-6.655s-1.7-18.128-2.662-18.363S1031.916,1305.79,1031.916,1305.79Z" transform="translate(-934.951 -1211.802)" fill="#d54a41" />
            <path id="Path_57" data-name="Path 57" d="M971.188,1775.8c28.881-8.752,25.38-13.127,35.882-8.168s23.663,8.326,17.5,9.918-15.461-3.5-15.461-3.5,1.459,7.877-3.793,10.21-28.567,3.182-41.56-.451S971.188,1775.8,971.188,1775.8Z" transform="translate(-882.888 -1542.044)" fill="#f09959" />
            <path id="Path_58" data-name="Path 58" d="M978.765,1797.113h5.748l-2.874,16.329s-11.325-1.681-10.48-2.807S978.765,1797.113,978.765,1797.113Z" transform="translate(-891.277 -1564.717)" fill="#a2dff2" />
            <path id="Path_59" data-name="Path 59" d="M720.544,1336.113c-11.268,19.719-14.843,30.474-24.027,67.377s-12.876,53.695-2.734,58.545c8.392,4.013,69.493,22.337,76.905,20.081,3.38.192,8.569-17.264,8.569-17.264l-55.614-24.79s16.1-38.425,18.874-63.665-9.578-40.284-15.776-40.284Z" transform="translate(-687.707 -1233.583)" fill="#f37168" />
            <path id="Path_60" data-name="Path 60" d="M976.023,1120.152c-2.721,8.542-1.554,10.284-5.32,11.083s-7.207-2.941-8.32-8.192,1.038-10.154,4.8-10.953S977.652,1115.038,976.023,1120.152Z" transform="translate(-884.794 -1072.592)" fill="#f09959" />
            <path id="Path_61" data-name="Path 61" d="M1004.961,1030.056c-14.741,26.2-44.022,22.351-61.817,13.336-14.507-7.349,41.387-35.187,41.387-35.187Z" transform="translate(-869.46 -998.048)" fill="#303c60" />
            <path id="Path_62" data-name="Path 62" d="M892.945,982.307c-5.464-16.479-27.851-12.583-38,9.342s5.379,36.588,14.785,31.217S892.945,982.307,892.945,982.307Z" transform="translate(-805.457 -972.151)" fill="#303c60" />
        </g>
        <g id="Group_13" data-name="Group 13" transform="translate(519.493 217.542)">
            <path id="Path_63" data-name="Path 63"
                d="M1461.689,483.307a130.543,130.543,0,0,0,3.923-20.047l-20.694-9.315q.157-2.941.161-5.923a110.561,110.561,0,0,0-1.2-16.222l19.729-11.227a130.048,130.048,0,0,0-5.809-19.58l-22.655,1.369a109.59,109.59,0,0,0-11.237-19.117l12.246-19.1a131.905,131.905,0,0,0-14.261-14.639l-19.415,11.735a109.717,109.717,0,0,0-18.812-11.736l1.968-22.614a130.108,130.108,0,0,0-19.418-6.327l-11.743,19.423a110.364,110.364,0,0,0-19.09-1.659q-1.516,0-3.021.043l-8.763-20.93a130.765,130.765,0,0,0-20.146,3.391l-1.372,22.649a109.079,109.079,0,0,0-20.342,8.845l-17.485-14.459a131.591,131.591,0,0,0-16.24,12.4l9.311,20.691a110.2,110.2,0,0,0-13.908,17.258l-22.213-4.68a130.514,130.514,0,0,0-8.639,18.507l17.864,14a109.213,109.213,0,0,0-4.264,21.761l-21.829,6.175c-.041,1.343-.068,2.689-.068,4.042a132.454,132.454,0,0,0,1.015,16.369l22.317,4.091a108.842,108.842,0,0,0,6.309,21.264l-16.465,15.618a130.948,130.948,0,0,0,10.355,17.609l21.668-6.751a110.343,110.343,0,0,0,15.464,15.875l-7.322,21.483a131.11,131.11,0,0,0,17.332,10.816l16.045-16.043a108.841,108.841,0,0,0,21.09,6.873l3.5,22.421a132.136,132.136,0,0,0,19.806,1.488c.192,0,.381-.007.573-.007l6.752-21.662a109.381,109.381,0,0,0,21.864-3.684l13.522,18.232a130.359,130.359,0,0,0,18.729-8.146l-4.09-22.326a110.1,110.1,0,0,0,17.618-13.451l20.44,9.856a131.705,131.705,0,0,0,12.823-15.91l-13.989-17.859a109.164,109.164,0,0,0,9.381-20.1Zm-126.3,18.666a53.951,53.951,0,1,1,53.951-53.951A53.951,53.951,0,0,1,1335.385,501.974Z"
                transform="translate(-1204.271 -317.442)" fill="#0a0a26" opacity="0.5" />
            <g id="Group_11" data-name="Group 11" transform="translate(45.212 173.66)">
                <path id="Path_64" data-name="Path 64" d="M1374.262,949.615a1.405,1.405,0,0,1-1.132-.569,97.974,97.974,0,0,1-8.206-13.082,1.408,1.408,0,1,1,2.5-1.3,95.193,95.193,0,0,0,7.969,12.7,1.409,1.409,0,0,1-1.129,2.249Z" transform="translate(-1364.765 -933.904)" fill="#fff" />
            </g>
            <g id="Group_12" data-name="Group 12" transform="translate(72.098 205.631)">
                <path id="Path_65" data-name="Path 65" d="M1507.5,1069.212a1.474,1.474,0,0,1-.185-.012,97.469,97.469,0,0,1-46.563-19.279,1.408,1.408,0,0,1,1.714-2.235,94.649,94.649,0,0,0,45.215,18.721,1.409,1.409,0,0,1-.181,2.805Z" transform="translate(-1460.205 -1047.395)" fill="#fff" />
            </g>
        </g>
        <g id="Group_28" data-name="Group 28" transform="translate(652.427 282.98)">
            <rect id="Rectangle_10" data-name="Rectangle 10" width="256.102" height="142.085" fill="#2e2e5d" />
            <rect id="Rectangle_11" data-name="Rectangle 11" width="245.96" height="129.408" transform="translate(2.817 3.099)" fill="#fff" />
            <g id="Group_25" data-name="Group 25" transform="translate(6.144 4.364)" opacity="0.5">
                <g id="Group_14" data-name="Group 14">
                    <path id="Path_66" data-name="Path 66" d="M1931.8,683.215H1698.534a.564.564,0,0,1-.563-.563V565.791a.563.563,0,0,1,.563-.563H1931.8a.563.563,0,0,1,.563.563v116.86A.564.564,0,0,1,1931.8,683.215Zm-232.7-1.127h232.135V566.355H1699.1Z" transform="translate(-1697.971 -565.228)" fill="#9ec8ff" />
                </g>
                <g id="Group_15" data-name="Group 15" transform="translate(0 97.383)">
                    <path id="Path_67" data-name="Path 67" d="M1931.8,912.047H1698.534a.564.564,0,0,1,0-1.127H1931.8a.564.564,0,0,1,0,1.127Z" transform="translate(-1697.971 -910.92)" fill="#9ec8ff" />
                </g>
                <g id="Group_16" data-name="Group 16" transform="translate(0 77.907)">
                    <path id="Path_68" data-name="Path 68" d="M1931.8,842.909H1698.534a.563.563,0,1,1,0-1.127H1931.8a.563.563,0,0,1,0,1.127Z" transform="translate(-1697.971 -841.782)" fill="#9ec8ff" />
                </g>
                <g id="Group_17" data-name="Group 17" transform="translate(0 58.43)">
                    <path id="Path_69" data-name="Path 69" d="M1931.8,773.77H1698.534a.563.563,0,1,1,0-1.127H1931.8a.563.563,0,0,1,0,1.127Z" transform="translate(-1697.971 -772.643)" fill="#9ec8ff" />
                </g>
                <g id="Group_18" data-name="Group 18" transform="translate(0 38.953)">
                    <path id="Path_70" data-name="Path 70" d="M1931.8,704.631H1698.534a.563.563,0,1,1,0-1.127H1931.8a.563.563,0,0,1,0,1.127Z" transform="translate(-1697.971 -703.504)" fill="#9ec8ff" />
                </g>
                <g id="Group_19" data-name="Group 19" transform="translate(0 19.477)">
                    <path id="Path_71" data-name="Path 71" d="M1931.8,635.493H1698.534a.563.563,0,1,1,0-1.127H1931.8a.563.563,0,0,1,0,1.127Z" transform="translate(-1697.971 -634.366)" fill="#9ec8ff" />
                </g>
                <g id="Group_20" data-name="Group 20" transform="translate(194.384)">
                    <path id="Path_72" data-name="Path 72" d="M2388.563,683.215a.564.564,0,0,1-.563-.563V565.791a.563.563,0,0,1,1.127,0v116.86A.564.564,0,0,1,2388.563,683.215Z" transform="translate(-2388 -565.228)" fill="#9ec8ff" />
                </g>
                <g id="Group_21" data-name="Group 21" transform="translate(155.508)">
                    <path id="Path_73" data-name="Path 73" d="M2250.558,683.215a.564.564,0,0,1-.564-.563V565.791a.563.563,0,0,1,1.127,0v116.86A.563.563,0,0,1,2250.558,683.215Z" transform="translate(-2249.994 -565.228)" fill="#9ec8ff" />
                </g>
                <g id="Group_22" data-name="Group 22" transform="translate(116.631)">
                    <path id="Path_74" data-name="Path 74" d="M2112.551,683.215a.564.564,0,0,1-.563-.563V565.791a.563.563,0,1,1,1.127,0v116.86A.563.563,0,0,1,2112.551,683.215Z" transform="translate(-2111.988 -565.228)" fill="#9ec8ff" />
                </g>
                <g id="Group_23" data-name="Group 23" transform="translate(77.754)">
                    <path id="Path_75" data-name="Path 75" d="M1974.545,683.215a.563.563,0,0,1-.563-.563V565.791a.563.563,0,1,1,1.126,0v116.86A.563.563,0,0,1,1974.545,683.215Z" transform="translate(-1973.982 -565.228)" fill="#9ec8ff" />
                </g>
                <g id="Group_24" data-name="Group 24" transform="translate(38.877)">
                    <path id="Path_76" data-name="Path 76" d="M1836.54,683.215a.563.563,0,0,1-.563-.563V565.791a.563.563,0,1,1,1.127,0v116.86A.564.564,0,0,1,1836.54,683.215Z" transform="translate(-1835.977 -565.228)" fill="#9ec8ff" />
                </g>
            </g>
            <g id="Group_26" data-name="Group 26" transform="translate(5.58 3.8)">
                <path id="Path_77" data-name="Path 77" d="M1697.1,682.341a1.127,1.127,0,0,1-.505-2.135l38.724-19.4,19.971-19.216,18.547-38.769a1.134,1.134,0,0,1,.267-.355l21.083-18.785a1.127,1.127,0,0,1,1.771.366l17.776,38.222,21.12,37.524,15.9-18.272a1.126,1.126,0,0,1,.812-.387,1.1,1.1,0,0,1,.836.331l18.1,18.181,18.913-56.7a1.121,1.121,0,0,1,.272-.439l38.876-38.953a1.127,1.127,0,0,1,1.6,1.592l-38.69,38.766-19.407,58.178a1.127,1.127,0,0,1-1.867.439l-18.532-18.619L1836.5,662.477a1.127,1.127,0,0,1-1.832-.187l-21.924-38.953c-.015-.025-.028-.051-.04-.078l-17.155-36.887L1775.769,604l-18.538,38.749a1.129,1.129,0,0,1-.235.326l-20.241,19.477a1.132,1.132,0,0,1-.276.2L1697.6,682.222A1.126,1.126,0,0,1,1697.1,682.341Z" transform="translate(-1695.97 -563.228)" fill="#f39892" />
            </g>
            <g id="Group_27" data-name="Group 27" transform="translate(5.581 3.8)">
                <path id="Path_78" data-name="Path 78" d="M1697.1,682.34a1.127,1.127,0,0,1-.807-1.914L1753.3,622a1.127,1.127,0,0,1,1.578-.035l19.952,18.729,38.1-38.18a1.127,1.127,0,0,1,1.579-.016l19.42,18.693,17.861-18.661a1.13,1.13,0,0,1,.8-.348,1.145,1.145,0,0,1,.809.331l37.771,37.844,38.178-76.505a1.127,1.127,0,0,1,2.016,1.007l-38.877,77.906a1.127,1.127,0,0,1-1.806.293l-38.062-38.137-17.846,18.644a1.128,1.128,0,0,1-1.6.033l-19.437-18.709-38.1,38.17a1.127,1.127,0,0,1-1.569.026l-19.942-18.72L1697.9,682A1.124,1.124,0,0,1,1697.1,682.34Z" transform="translate(-1695.97 -563.226)" fill="#9ec8ff" />
            </g>
        </g>
        <g id="Group_31" data-name="Group 31" transform="translate(552.128 226.624)">
            <path id="Rectangle_12" data-name="Rectangle 12" d="M9.867,0H78.1a9.867,9.867,0,0,1,9.867,9.867V63.233a65.3,65.3,0,0,1-65.3,65.3H0a0,0,0,0,1,0,0V9.867A9.867,9.867,0,0,1,9.867,0Z" transform="translate(39.287 0)" fill="#9ec8ff" />
            <path id="Rectangle_13" data-name="Rectangle 13" d="M9.372,0H74.639a9.372,9.372,0,0,1,9.372,9.372v51.4A62.033,62.033,0,0,1,21.979,122.8H0a0,0,0,0,1,0,0V9.372A9.372,9.372,0,0,1,9.372,0Z" transform="translate(40.277 2.175)" fill="#fff" />
            <path id="Path_79" data-name="Path 79" d="M1409.836,690.17v-2.215a2.972,2.972,0,0,0-2.734-3.163H1322.85a2.972,2.972,0,0,0-2.733,3.163v2.215c0,15.7,10.995,28.424,24.557,28.424h86.084C1417.2,718.595,1409.65,707.3,1409.836,690.17Z" transform="translate(-1320.118 -590.39)" fill="#9ec8ff" />
            <path id="Path_80" data-name="Path 80" d="M1417.029,700.6v-1.792a2.559,2.559,0,0,0-2.56-2.559h-78.893a2.559,2.559,0,0,0-2.559,2.559V700.6a23,23,0,0,0,23,23h84.012C1427.324,723.6,1417.029,717.451,1417.029,700.6Z" transform="translate(-1329.383 -598.62)" fill="#fff" />
            <g id="Group_29" data-name="Group 29" transform="translate(52.018 13.92)">
                <path id="Path_81" data-name="Path 81" d="M1568.224,438.583h-60.009a3.448,3.448,0,0,1-3.444-3.444v-32.6a3.448,3.448,0,0,1,3.444-3.444h60.009a3.448,3.448,0,0,1,3.444,3.444v32.6A3.448,3.448,0,0,1,1568.224,438.583Zm-60.009-38.363a2.32,2.32,0,0,0-2.317,2.317v32.6a2.32,2.32,0,0,0,2.317,2.317h60.009a2.319,2.319,0,0,0,2.317-2.317v-32.6a2.319,2.319,0,0,0-2.317-2.317Z" transform="translate(-1504.771 -399.093)" fill="#9ec8ff" />
            </g>
            <path id="Path_82" data-name="Path 82" d="M1486.674,586.761h-65.962a1.7,1.7,0,0,1,0-3.408h65.962a1.7,1.7,0,0,1,0,3.408Z" transform="translate(-1391.15 -517.527)" fill="#9ec8ff" />
            <path id="Path_83" data-name="Path 83" d="M1486.674,608.831h-65.962a1.7,1.7,0,0,1,0-3.408h65.962a1.7,1.7,0,0,1,0,3.408Z" transform="translate(-1391.15 -533.379)" fill="#9ec8ff" />
            <path id="Path_84" data-name="Path 84" d="M1486.674,630.133h-65.962a1.7,1.7,0,0,1,0-3.408h65.962a1.7,1.7,0,0,1,0,3.408Z" transform="translate(-1391.15 -548.68)" fill="#9ec8ff" />
            <g id="Group_30" data-name="Group 30" transform="translate(96.043 19.106)">
                <rect id="Rectangle_14" data-name="Rectangle 14" width="3.89" height="3.501" rx="1.751" fill="#9ec8ff" />
                <rect id="Rectangle_15" data-name="Rectangle 15" width="3.89" height="3.501" rx="1.751" transform="translate(7.073)" fill="#9ec8ff" />
                <rect id="Rectangle_16" data-name="Rectangle 16" width="3.89" height="3.501" rx="1.751" transform="translate(14.146)" fill="#9ec8ff" />
            </g>
            <rect id="Rectangle_17" data-name="Rectangle 17" width="8.881" height="14.663" transform="translate(58.582 33.664)" fill="#9ec8ff" />
            <rect id="Rectangle_18" data-name="Rectangle 18" width="8.881" height="13.442" transform="translate(83.066 34.886)" fill="#9ec8ff" />
            <rect id="Rectangle_19" data-name="Rectangle 19" width="8.881" height="19.443" transform="translate(97.227 28.885)" fill="#9ec8ff" />
            <rect id="Rectangle_20" data-name="Rectangle 20" width="8.881" height="8.881" transform="translate(70.584 39.446)" fill="#9ec8ff" />
        </g>
        <g id="Group_33" data-name="Group 33" transform="translate(1110.162 336.126)">
            <path id="Path_85" data-name="Path 85" d="M3332.655,785.726h31.617a31.617,31.617,0,1,1-31.617-31.617Z" transform="translate(-3301.037 -749.682)" fill="url(#linear-gradient-2)" />
            <g id="Group_32" data-name="Group 32" transform="translate(5.295 0)">
                <path id="Path_86" data-name="Path 86" d="M3463.688,770.011a31.617,31.617,0,0,0-31.617-31.617v31.617Z" transform="translate(-3400.453 -738.394)" fill="#f39892" />
                <path id="Path_87" data-name="Path 87" d="M3319.835,850.63a31.617,31.617,0,0,0,31.617,31.617A31.768,31.768,0,0,1,3319.835,850.63Z" transform="translate(-3319.835 -819.013)" fill="#f39892" />
                <path id="Path_88" data-name="Path 88" d="M3351.452,738.394a31.617,31.617,0,0,0-31.617,31.617A31.768,31.768,0,0,1,3351.452,738.394Z" transform="translate(-3319.835 -738.394)" fill="#f39892" />
                <path id="Path_89" data-name="Path 89" d="M3432.071,882.247a31.617,31.617,0,0,0,31.617-31.617A31.768,31.768,0,0,1,3432.071,882.247Z" transform="translate(-3400.453 -819.013)" fill="#f39892" />
            </g>
        </g>
        <circle id="Ellipse_1" data-name="Ellipse 1" cx="2.803" cy="2.803" r="2.803" transform="translate(754.599 305.992) rotate(-13.282)" fill="#f39892" />
        <circle id="Ellipse_2" data-name="Ellipse 2" cx="2.803" cy="2.803" r="2.803" transform="translate(712.906 344.253) rotate(-13.282)" fill="#9ec8ff" />
        <circle id="Ellipse_3" data-name="Ellipse 3" cx="2.803" cy="2.803" r="2.803" transform="translate(772.962 324.057)" fill="#9ec8ff" />
        <circle id="Ellipse_4" data-name="Ellipse 4" cx="2.803" cy="2.803" r="2.803" transform="translate(811.839 324.057)" fill="#9ec8ff" />
        <circle id="Ellipse_5" data-name="Ellipse 5" cx="2.803" cy="2.803" r="2.803" transform="translate(850.716 324.057)" fill="#f39892" />
        <g id="Group_35" data-name="Group 35" transform="translate(549.236 333.434)">
            <circle id="Ellipse_6" data-name="Ellipse 6" cx="15.128" cy="15.128" r="15.128" transform="translate(0 21.394) rotate(-45)" fill="#9cd499" />
            <g id="Group_34" data-name="Group 34" transform="translate(14.939 16.396)">
                <path id="Path_90" data-name="Path 90" d="M1367.837,797.323h-.031a.846.846,0,0,1-.6-.286l-4.109-4.67a.845.845,0,1,1,1.269-1.117l3.52,4,8.142-7.968a.845.845,0,0,1,1.182,1.208l-8.778,8.592A.845.845,0,0,1,1367.837,797.323Z" transform="translate(-1362.883 -787.041)" fill="#fff" />
            </g>
        </g>
        <g id="Group_36" data-name="Group 36" transform="translate(356.883 247.012)">
            <rect id="Rectangle_21" data-name="Rectangle 21" width="10.07" height="54.935" transform="translate(0 16.725)" fill="url(#linear-gradient-2)" />
            <rect id="Rectangle_22" data-name="Rectangle 22" width="10.07" height="38.953" transform="translate(42.676 32.707)" fill="url(#linear-gradient-2)" />
            <rect id="Rectangle_23" data-name="Rectangle 23" width="10.07" height="54.935" transform="translate(64.014 16.725)" fill="url(#linear-gradient-2)" />
            <rect id="Rectangle_24" data-name="Rectangle 24" width="10.07" height="19.477" transform="translate(85.352 52.183)" fill="url(#linear-gradient-2)" />
            <rect id="Rectangle_25" data-name="Rectangle 25" width="10.07" height="71.66" transform="translate(21.338)" fill="url(#linear-gradient-2)" />
            <rect id="Rectangle_26" data-name="Rectangle 26" width="10.07" height="38.953" transform="translate(106.762 32.707)" fill="url(#linear-gradient-2)" />
        </g>
        <g id="Group_37" data-name="Group 37" transform="translate(976.484 229.672)">
            <rect id="Rectangle_27" data-name="Rectangle 27" width="10.07" height="29.137" transform="translate(0 39.036)" fill="url(#linear-gradient-2)" />
            <rect id="Rectangle_28" data-name="Rectangle 28" width="10.07" height="19.658" transform="translate(129.071 48.515)" fill="url(#linear-gradient-2)" />
            <rect id="Rectangle_29" data-name="Rectangle 29" width="10.07" height="68.174" transform="translate(42.676 0)" fill="url(#linear-gradient-2)" />
            <rect id="Rectangle_30" data-name="Rectangle 30" width="10.07" height="30.643" transform="translate(64.014 37.531)" fill="url(#linear-gradient-2)" />
            <rect id="Rectangle_31" data-name="Rectangle 31" width="10.07" height="39.317" transform="translate(85.352 28.857)" fill="url(#linear-gradient-2)" />
            <rect id="Rectangle_32" data-name="Rectangle 32" width="10.07" height="48.375" transform="translate(21.338 19.798)" fill="url(#linear-gradient-2)" />
            <rect id="Rectangle_33" data-name="Rectangle 33" width="10.07" height="59.582" transform="translate(106.762 8.592)" fill="url(#linear-gradient-2)" />
        </g>
        <g id="Group_39" data-name="Group 39" transform="translate(284.701 372.647)">
            <g id="Group_38" data-name="Group 38" transform="translate(0 0)" clip-path="url(#clip-path)">
                <path id="Path_91" data-name="Path 91" d="M532.549,1032.42l-36.214-22.145-6.551,41.941A42.5,42.5,0,0,0,532.549,1032.42Z" transform="translate(-456.266 -970.206)" fill="#a2dff2" />
                <path id="Path_92" data-name="Path 92" d="M549.29,981.214c.1-.16.225-.38.22-.371a42.452,42.452,0,0,0,.94-41.787c-12.816,6.715-5.184,2.636-37.413,20.063C549.312,981.3,543.678,977.88,549.29,981.214Z" transform="translate(-472.969 -919.05)" fill="#9cd499" />
                <path id="Path_93" data-name="Path 93" d="M371.722,887.486l39.809,14.669,37.344-20.193C431.407,849.656,384.388,853.53,371.722,887.486Z" transform="translate(-371.462 -862.086)" fill="#9ec8ff" />
                <path id="Path_94" data-name="Path 94" d="M398.175,1014.813l6.551-41.941L364.917,958.2C355.45,983.583,372.252,1010.727,398.175,1014.813Z" transform="translate(-364.657 -932.804)" fill="#f39892" />
                <path id="Path_95" data-name="Path 95"
                    d="M439.313,920.227a44.03,44.03,0,0,0,1.1-41.278l.023-.013-.67-1.239c-.014-.025-.029-.049-.042-.074l-.548-1.019-.021.011a43.343,43.343,0,0,0-17.5-16.973,44.214,44.214,0,0,0-61.09,22.452l-.023-.009-.49,1.315-.494,1.325.023.009a43.313,43.313,0,0,0,3.712,35.785,43.9,43.9,0,0,0,29.732,21.131l0,.024,1.388.219,1.395.22,0-.024a43.9,43.9,0,0,0,42.074-19.528l.028.017.276-.452c.007,0,.449-.736.449-.736.069-.113.151-.253.2-.333l.03-.049.022-.038.447-.73Zm-4.247-38.293,2.926-1.53a41.207,41.207,0,0,1-1.057,38.317l-.269-.157c-1.48-.877-2.123-1.257-5.072-3.056L404,898.636l22.9-12.385C430.271,884.441,431.65,883.72,435.066,881.934Zm-71.858,1.133A41.07,41.07,0,0,1,436.6,877.81l-11.029,5.964c-2.277,1.225-5.46,2.948-10.79,5.831-3.414,1.848-7.711,4.172-13.213,7.148l-.34.184-1.109-.678-.061.387-17.441-6.427Zm2.518,36.03a40.505,40.505,0,0,1-3.5-33.391l26.223,9.662,11.165,4.114-6.151,39.384A41.1,41.1,0,0,1,365.726,919.1Zm30.517,20.208,6-38.442,15.625,9.556c6.3,3.853,9.9,6.058,12.172,7.442l5.394,3.3A40.877,40.877,0,0,1,396.243,939.306Z"
                    transform="translate(-361.113 -858.492)" fill="#e7f3fe" />
            </g>
        </g>
        <path id="Path_96" data-name="Path 96" d="M358.1,1301.886a12.64,12.64,0,1,1-12.64-12.64A12.64,12.64,0,0,1,358.1,1301.886Z" transform="translate(-58.816 -797.943)" fill="url(#linear-gradient-2)" />
        <path id="Path_97" data-name="Path 97" d="M378.371,1319.944a6.341,6.341,0,1,1-6.341-6.341A6.341,6.341,0,0,1,378.371,1319.944Z" transform="translate(-82.428 -815.438)" fill="#fff" />
        <path id="Rectangle_34" data-name="Rectangle 34" d="M24.037,0h0A24.036,24.036,0,0,1,48.073,24.036v0A24.037,24.037,0,0,1,24.037,48.073h0A24.036,24.036,0,0,1,0,24.037v0A24.037,24.037,0,0,1,24.037,0Z" transform="translate(1112.865 455.7)" fill="url(#linear-gradient-2)" />
        <g id="Group_40" data-name="Group 40" transform="translate(1126.077 461.65)">
            <path id="Path_98" data-name="Path 98" d="M3398.665,1234.874h-31.382a9.766,9.766,0,0,1-9.754-9.754v-31.382a9.766,9.766,0,0,1,9.754-9.754h31.382a9.766,9.766,0,0,1,9.754,9.754v31.382A9.766,9.766,0,0,1,3398.665,1234.874Zm-31.382-48.074a6.945,6.945,0,0,0-6.937,6.937v31.382a6.945,6.945,0,0,0,6.938,6.937h31.382a6.945,6.945,0,0,0,6.937-6.937v-31.382a6.945,6.945,0,0,0-6.937-6.937Z" transform="translate(-3357.529 -1183.983)" fill="#fff" />
        </g>
        <path id="Path_99" data-name="Path 99" d="M1467.383,1281.564l-8.008-9.236a3.391,3.391,0,0,1,.34-4.769l9.236-8.009a3.39,3.39,0,0,1,4.769.34l8.008,9.236a3.39,3.39,0,0,1-.339,4.768l-9.236,8.009A3.39,3.39,0,0,1,1467.383,1281.564Z" transform="translate(-867.427 -776.021)" fill="url(#linear-gradient-2)" />
        <path id="Path_100" data-name="Path 100" d="M1624.576,1349.185a7.073,7.073,0,1,1-7.073-7.073A7.073,7.073,0,0,1,1624.576,1349.185Z" transform="translate(-976.52 -835.916)" fill="url(#linear-gradient-2)" />
        <path id="Path_101" data-name="Path 101" d="M3773.112,1271.473a7.05,7.05,0,1,1-7.05-7.05A7.051,7.051,0,0,1,3773.112,1271.473Z" transform="translate(-2519.835 -780.112)" fill="url(#linear-gradient-2)" />
        <path id="Path_102" data-name="Path 102" d="M3126.072,761.408a7.05,7.05,0,1,1-7.05-7.05A7.05,7.05,0,0,1,3126.072,761.408Z" transform="translate(-2055.07 -413.735)" fill="url(#linear-gradient-2)" />
        <circle id="Ellipse_7" data-name="Ellipse 7" cx="5.494" cy="5.494" r="5.494" transform="translate(1193.532 439.51) rotate(-80.783)" fill="url(#linear-gradient-2)" />
        <g id="Group_42" data-name="Group 42" transform="translate(889.977 312.272)">
            <path id="Rectangle_35" data-name="Rectangle 35" d="M8.169,0H113.217a8.17,8.17,0,0,1,8.17,8.17V46.688a8.17,8.17,0,0,1-8.17,8.17H8.17A8.17,8.17,0,0,1,0,46.688V8.169A8.169,8.169,0,0,1,8.169,0Z" fill="#9ec8ff" />
            <rect id="Rectangle_36" data-name="Rectangle 36" width="114.749" height="37.87" rx="6.6" transform="translate(3.319 14.413)" fill="#fff" />
            <g id="Group_41" data-name="Group 41" transform="translate(5.004 4.037)">
                <path id="Rectangle_37" data-name="Rectangle 37" d="M2.14,0h.476a2.14,2.14,0,0,1,2.14,2.14v0a2.14,2.14,0,0,1-2.14,2.14H2.14A2.14,2.14,0,0,1,0,2.14v0A2.14,2.14,0,0,1,2.14,0Z" fill="#fff" />
                <path id="Rectangle_38" data-name="Rectangle 38" d="M2.14,0h.476a2.14,2.14,0,0,1,2.14,2.14v0a2.14,2.14,0,0,1-2.14,2.14H2.14A2.14,2.14,0,0,1,0,2.14v0A2.14,2.14,0,0,1,2.14,0Z" transform="translate(8.646)" fill="#fff" />
                <rect id="Rectangle_39" data-name="Rectangle 39" width="4.755" height="4.28" rx="2.14" transform="translate(17.292)" fill="#fff" />
            </g>
            <path id="Path_103" data-name="Path 103" d="M2762.573,725.083h-60.7a1.816,1.816,0,0,1,0-3.631h60.7a1.816,1.816,0,0,1,0,3.631Z" transform="translate(-2649.173 -702.37)" fill="#9ec8ff" />
            <path id="Path_104" data-name="Path 104" d="M2600.515,824.527h-60.7a1.816,1.816,0,1,1,0-3.632h60.7a1.816,1.816,0,0,1,0,3.632Z" transform="translate(-2532.767 -773.8)" fill="#9ec8ff" />
            <path id="Rectangle_40" data-name="Rectangle 40" d="M1.816,0H5.706A1.816,1.816,0,0,1,7.522,1.816v0A1.816,1.816,0,0,1,5.706,3.631H1.815A1.815,1.815,0,0,1,0,1.817v0A1.816,1.816,0,0,1,1.816,0Z" transform="translate(72.027 47.095)" fill="#9ec8ff" />
            <path id="Rectangle_41" data-name="Rectangle 41" d="M1.815,0H5.707A1.815,1.815,0,0,1,7.522,1.815v0A1.815,1.815,0,0,1,5.707,3.631H1.816A1.816,1.816,0,0,1,0,1.815v0A1.815,1.815,0,0,1,1.815,0Z" transform="translate(81.495 47.095)" fill="#9ec8ff" />
            <path id="Path_105" data-name="Path 105" d="M2664.608,756.143H2564.1a1.232,1.232,0,1,1,0-2.464h100.513a1.232,1.232,0,0,1,0,2.464Z" transform="translate(-2550.625 -725.519)" fill="#9ec8ff" />
            <path id="Path_106" data-name="Path 106" d="M2664.608,775.019H2564.1a1.232,1.232,0,1,1,0-2.464h100.513a1.232,1.232,0,0,1,0,2.464Z" transform="translate(-2550.625 -739.077)" fill="#9ec8ff" />
        </g>
        <circle id="Ellipse_8" data-name="Ellipse 8" cx="13.941" cy="13.941" r="13.941" transform="matrix(0.23, -0.973, 0.973, 0.23, 272.83, 321.245)" fill="url(#linear-gradient-2)" />
        <path id="Path_107" data-name="Path 107" d="M818.471,785.023H718.287a1.861,1.861,0,1,1,0-3.721H818.471a1.861,1.861,0,1,1,0,3.721Z" transform="translate(-334.361 -433.089)" fill="url(#linear-gradient-2)" />
        <path id="Path_108" data-name="Path 108" d="M818.471,818.012H718.287a1.861,1.861,0,1,1,0-3.721H818.471a1.861,1.861,0,1,1,0,3.721Z" transform="translate(-334.361 -456.785)" fill="url(#linear-gradient-2)" />
        <g id="Group_46" data-name="Group 46" transform="translate(721.37 417.892)">
            <g>
            <path id="Path_109" data-name="Path 109"
                d="M2059.863,1104.778a70.329,70.329,0,0,0,.44-7.826c0-1.4-.046-2.782-.127-4.158l-12.932-4.184a56.844,56.844,0,0,0-4.579-15.494l8.574-10.551a69.88,69.88,0,0,0-6.792-9.874l-12.933,4.22a57.474,57.474,0,0,0-12.8-9.842l.736-13.588a69.143,69.143,0,0,0-11.29-4l-7.986,11.021a57.526,57.526,0,0,0-16.146-.423l-7.393-11.429a69.188,69.188,0,0,0-11.488,3.395l.017,13.609a57.368,57.368,0,0,0-13.307,9.153l-12.688-4.9a70.02,70.02,0,0,0-7.307,9.5l8.008,10.992a56.816,56.816,0,0,0-5.4,15.229l-13.133,3.495a70.32,70.32,0,0,0-.44,7.826c0,1.4.046,2.782.127,4.158l12.932,4.184a56.835,56.835,0,0,0,4.578,15.494l-8.574,10.552a69.823,69.823,0,0,0,6.792,9.874l12.934-4.22a57.462,57.462,0,0,0,12.8,9.841l-.736,13.588a69.187,69.187,0,0,0,11.29,4l7.986-11.021a57.515,57.515,0,0,0,16.145.423l7.394,11.429a69.1,69.1,0,0,0,11.487-3.395l-.016-13.608a57.39,57.39,0,0,0,13.307-9.153l12.688,4.9a69.986,69.986,0,0,0,7.306-9.5l-8.007-10.993a56.828,56.828,0,0,0,5.4-15.229Zm-69.264,19.513a27.339,27.339,0,1,1,27.339-27.339A27.34,27.34,0,0,1,1990.6,1124.291Z"
                transform="translate(-1920.895 -1028.648)" fill="#0a0a26" opacity="0.5" />
            <g id="Group_43" data-name="Group 43" transform="translate(105.585 51.518)">
                <path id="Path_110" data-name="Path 110" d="M2297.109,1259.879a1.409,1.409,0,0,1-1.083-2.309,45.869,45.869,0,0,0,8.082-44.177,1.408,1.408,0,0,1,2.663-.917,48.685,48.685,0,0,1-8.579,46.9A1.405,1.405,0,0,1,2297.109,1259.879Z" transform="translate(-2295.701 -1211.526)" fill="#fff" />
            </g>
            <g id="Group_44" data-name="Group 44" transform="translate(85.378 22.515)">
                <path id="Path_111" data-name="Path 111" d="M2241.626,1121.4a1.4,1.4,0,0,1-.965-.383,45.525,45.525,0,0,0-15.763-9.712,1.408,1.408,0,1,1,.96-2.648,48.321,48.321,0,0,1,16.733,10.309,1.408,1.408,0,0,1-.966,2.434Z" transform="translate(-2223.97 -1108.571)" fill="#fff" />
            </g>
            <g id="Group_45" data-name="Group 45" transform="translate(57.692 19.698)">
                <path id="Path_112" data-name="Path 112" d="M2127.1,1102.823a1.408,1.408,0,0,1-.344-2.774,48.78,48.78,0,0,1,11.932-1.476,1.409,1.409,0,1,1,0,2.817,45.966,45.966,0,0,0-11.243,1.39A1.416,1.416,0,0,1,2127.1,1102.823Z" transform="translate(-2125.69 -1098.573)" fill="#fff" />
            </g>
            <animateTransform attributeName="transform"
                          attributeType="XML"
                          type="rotate"
                          from="0 60 70"
                          to="360 60 70"
                          dur="10s"
                          repeatCount="indefinite"/>
            </g>
            
        </g>
    </g>
</svg>